<svg viewBox="0 0 123 46" fill="none" xmlns="http://www.w3.org/2000/svg">
<path fill-rule="evenodd" clip-rule="evenodd" d="M32.4231 23.4453C34.9671 25.0225 37.7958 26.2026 40.8547 26.9181C40.8559 26.9171 40.8572 26.9161 40.8585 26.915C40.8588 26.9152 40.859 26.9152 40.859 26.9152C36.9693 29.9056 34.5484 32.0936 32.065 34.7346C29.4821 37.4813 26.7354 40.7154 23.4304 45.9254C23.3069 45.7456 23.1156 45.4534 22.8775 45.0897C22.1418 43.9662 20.9591 42.1601 19.9482 40.8749C21.6849 33.4501 26.1769 27.375 32.4231 23.4453Z" fill="white"/>
<path fill-rule="evenodd" clip-rule="evenodd" d="M23.4121 14.4419C24.9937 11.8983 26.1694 9.07882 26.8849 6.01998C26.8839 6.01869 26.8829 6.01741 26.8818 6.01612C26.8819 6.01582 26.882 6.01562 26.882 6.01562C29.8724 9.90541 32.0604 12.3263 34.7014 14.8097C37.4481 17.3925 40.6822 20.1392 45.8922 23.4442C45.7123 23.5677 45.4202 23.759 45.0565 23.9972C43.933 24.7329 42.1269 25.9156 40.8417 26.9264C33.4169 25.1898 27.3418 20.6882 23.4121 14.4419Z" fill="white"/>
<path fill-rule="evenodd" clip-rule="evenodd" d="M14.4134 23.4488C11.8696 21.8715 9.04074 20.6914 5.9819 19.9761C5.98061 19.9771 5.97932 19.9781 5.97803 19.9791C5.97774 19.979 5.97754 19.979 5.97754 19.979C9.86733 16.9885 12.2882 14.8005 14.7716 12.1596C17.3544 9.41283 20.1011 6.17867 23.4061 0.96875C23.5296 1.14859 23.721 1.44074 23.9591 1.80442C24.6949 2.92797 25.8776 4.73399 26.8883 6.0192C25.1517 13.4441 20.6597 19.5192 14.4134 23.4488Z" fill="white"/>
<path fill-rule="evenodd" clip-rule="evenodd" d="M23.4282 32.4435C21.851 34.9874 20.6621 37.8162 19.9467 40.8751C19.9477 40.8763 19.9487 40.8776 19.9498 40.8789C19.9497 40.8793 19.9496 40.8794 19.9496 40.8794C16.9592 36.9897 14.7712 34.5688 12.1302 32.0854C9.38348 29.5025 6.14941 26.7558 0.939453 23.4508C1.11923 23.3273 1.41144 23.136 1.77516 22.8979C2.89861 22.1622 4.70473 20.9795 5.98994 19.9688C13.4147 21.7052 19.4986 26.1973 23.4282 32.4435Z" fill="white"/>
<path d="M67.1362 19.6629L62.777 30.3564H59.168L65.0479 16.3125H69.2246L75.1248 30.3564H71.455L67.1362 19.6629ZM70.6845 28.0492H63.5475L64.2977 25.401H69.8937L70.6845 28.0492Z" fill="white"/>
<path d="M76.9434 30.3564V16.3125H84.3237C85.3644 16.3125 86.2566 16.453 87 16.7339C87.7569 17.0147 88.3314 17.4227 88.7235 17.9577C89.1289 18.4793 89.3316 19.1146 89.3316 19.8636C89.3316 20.412 89.2167 20.9202 88.987 21.3883C88.7707 21.8565 88.4531 22.2511 88.0341 22.5721C87.6151 22.893 87.1284 23.1205 86.5742 23.2542L86.4728 22.9332C87.5272 23.0937 88.3652 23.5016 88.987 24.1571C89.6088 24.799 89.9197 25.5949 89.9197 26.5445C89.9197 27.3337 89.7034 28.0157 89.2708 28.5909C88.8383 29.1527 88.2098 29.5873 87.3853 29.895C86.5742 30.2026 85.6145 30.3564 84.5061 30.3564H76.9434ZM80.1469 24.5182V22.0304H83.6546C84.1681 22.0304 84.5872 21.9769 84.9116 21.8698C85.2495 21.7495 85.4996 21.5823 85.6619 21.3683C85.824 21.1409 85.9051 20.8601 85.9051 20.5257C85.9051 20.0041 85.7227 19.6296 85.3577 19.4021C84.9928 19.1614 84.425 19.041 83.6546 19.041H80.3699V27.6279H84.0398C84.594 27.6279 85.0468 27.5744 85.3983 27.4674C85.7497 27.347 86.0133 27.1731 86.189 26.9458C86.3647 26.7184 86.4526 26.4308 86.4526 26.083C86.4526 25.548 86.2498 25.1535 85.8443 24.8994C85.4388 24.6452 84.817 24.5182 83.979 24.5182H80.1469Z" fill="white"/>
<path d="M92.3516 30.3564V16.3125H98.6572C100.239 16.3125 101.624 16.6 102.814 17.1752C104.017 17.7503 104.936 18.5662 105.571 19.6228C106.22 20.6795 106.544 21.91 106.544 23.3144C106.544 24.7322 106.22 25.9761 105.571 27.046C104.936 28.1027 104.017 28.9186 102.814 29.4937C101.624 30.0688 100.239 30.3564 98.6572 30.3564H92.3516ZM98.495 27.4072C99.4142 27.4072 100.205 27.2467 100.867 26.9257C101.53 26.5913 102.037 26.1231 102.388 25.5213C102.753 24.9061 102.935 24.1771 102.935 23.3344C102.935 22.4784 102.753 21.7495 102.388 21.1476C102.037 20.5323 101.523 20.0642 100.847 19.7433C100.185 19.4222 99.4007 19.2617 98.495 19.2617H95.8389V27.4072H98.495Z" fill="white"/>
<path d="M118.05 30.3503L112.184 23.5757V22.9336L117.881 16.293H122.139L116.117 23.2146L122.298 30.3503H118.05ZM109.061 30.3569L109.041 16.313H112.549V30.3569H109.061Z" fill="white"/>
</svg>
