<svg viewBox="0 0 153 25" fill="none" xmlns="http://www.w3.org/2000/svg">
<path d="M21.4988 24.8079V18.5459H14.7466C12.9104 18.5459 11.2095 19.5194 10.2691 21.1088L8.08008 24.8079H21.4988Z" fill="white"/>
<path d="M0.0283203 0.65332V6.91537H17.7961L21.4982 0.65332H0.0283203Z" fill="white"/>
<path d="M8.7653 10.6012L0.0283203 24.8085H7.47202L17.9199 7.81152H13.8094C11.7419 7.81152 9.8265 8.87088 8.7653 10.6012Z" fill="white"/>
<path d="M36.7674 19.2539C33.1236 19.2539 30.4424 16.5656 30.4424 12.9581C30.4424 9.38522 33.1408 6.66223 36.7846 6.66223C40.4283 6.66223 43.1268 9.41991 43.1268 12.9581C43.1268 16.5309 40.4111 19.2539 36.7674 19.2539ZM36.7846 17.0512C39.0877 17.0512 40.7377 15.3168 40.7377 12.9581C40.7377 10.634 39.0877 8.8649 36.7846 8.8649C34.4643 8.8649 32.8143 10.634 32.8143 12.9581C32.8143 15.3168 34.4643 17.0512 36.7846 17.0512ZM45.5668 23.0175V9.90553H47.7668V11.0676H47.8871C48.1277 10.686 48.9527 9.68006 50.6027 9.68006C53.1293 9.68006 54.8652 11.5879 54.8652 14.4323C54.8652 17.2767 53.1465 19.2539 50.6715 19.2539C49.073 19.2539 48.2136 18.352 47.9215 17.849H47.8011V23.0175H45.5668ZM50.173 17.2073C51.6168 17.2073 52.5965 16.08 52.5965 14.467C52.5965 12.802 51.6168 11.7266 50.1558 11.7266C48.6777 11.7266 47.7496 12.9234 47.7496 14.467C47.7496 16.1667 48.7808 17.2073 50.173 17.2073ZM61.2583 19.2539C58.5943 19.2539 56.7036 17.242 56.7036 14.519C56.7036 11.6399 58.6115 9.68006 61.2583 9.68006C64.163 9.68006 65.7443 11.848 65.7443 14.4149V15.126H58.8693C58.938 16.5135 59.8833 17.4501 61.3271 17.4501C62.4271 17.4501 63.2693 16.9298 63.5787 16.184H65.6583C65.2115 18.0398 63.5958 19.2539 61.2583 19.2539ZM58.9037 13.5304H63.613C63.5099 12.299 62.5646 11.4838 61.2583 11.4838C60.0037 11.4838 59.0412 12.3857 58.9037 13.5304ZM68.1499 19.0284V9.90553H70.2812V11.0155H70.4015C70.7624 10.3391 71.6562 9.68006 72.9452 9.68006C74.9733 9.68006 76.2108 11.1196 76.2108 13.0621V19.0284H73.9765V13.6518C73.9765 12.5418 73.2718 11.796 72.2405 11.796C71.1577 11.796 70.3843 12.6632 70.3843 13.8079V19.0284H68.1499ZM78.4274 19.0284V16.9645L84.6837 9.00365V8.88225H78.6508V6.8877H87.5368V8.93428L81.2805 16.8951V17.0339H87.5712V19.0284H78.4274ZM93.6205 19.2539C90.9565 19.2539 89.0658 17.242 89.0658 14.519C89.0658 11.6399 90.9737 9.68006 93.6205 9.68006C96.5252 9.68006 98.1065 11.848 98.1065 14.4149V15.126H91.2315C91.3002 16.5135 92.2455 17.4501 93.6893 17.4501C94.7893 17.4501 95.6315 16.9298 95.9409 16.184H98.0205C97.5737 18.0398 95.958 19.2539 93.6205 19.2539ZM91.2658 13.5304H95.9752C95.8721 12.299 94.9268 11.4838 93.6205 11.4838C92.3659 11.4838 91.4033 12.3857 91.2658 13.5304ZM100.512 23.0175V9.90553H102.712V11.0676H102.832C103.073 10.686 103.898 9.68006 105.548 9.68006C108.075 9.68006 109.811 11.5879 109.811 14.4323C109.811 17.2767 108.092 19.2539 105.617 19.2539C104.018 19.2539 103.159 18.352 102.867 17.849H102.746V23.0175H100.512ZM105.118 17.2073C106.562 17.2073 107.542 16.08 107.542 14.467C107.542 12.802 106.562 11.7266 105.101 11.7266C103.623 11.7266 102.695 12.9234 102.695 14.467C102.695 16.1667 103.726 17.2073 105.118 17.2073ZM112.216 23.0175V9.90553H114.416V11.0676H114.536C114.777 10.686 115.602 9.68006 117.252 9.68006C119.779 9.68006 121.515 11.5879 121.515 14.4323C121.515 17.2767 119.796 19.2539 117.321 19.2539C115.722 19.2539 114.863 18.352 114.571 17.849H114.451V23.0175H112.216ZM116.822 17.2073C118.266 17.2073 119.246 16.08 119.246 14.467C119.246 12.802 118.266 11.7266 116.805 11.7266C115.327 11.7266 114.399 12.9234 114.399 14.467C114.399 16.1667 115.43 17.2073 116.822 17.2073ZM127.908 19.2539C125.244 19.2539 123.353 17.242 123.353 14.519C123.353 11.6399 125.261 9.68006 127.908 9.68006C130.812 9.68006 132.394 11.848 132.394 14.4149V15.126H125.519C125.587 16.5135 126.533 17.4501 127.976 17.4501C129.076 17.4501 129.919 16.9298 130.228 16.184H132.308C131.861 18.0398 130.245 19.2539 127.908 19.2539ZM125.553 13.5304H130.262C130.159 12.299 129.214 11.4838 127.908 11.4838C126.653 11.4838 125.691 12.3857 125.553 13.5304ZM136.999 19.0284C135.418 19.0284 134.524 18.0745 134.524 16.4615V6.02051H136.759V16.2534C136.759 16.7737 137.016 17.0512 137.481 17.0512H137.841V19.0284H136.999ZM141.106 8.69146C140.299 8.69146 139.731 8.18849 139.731 7.37333C139.731 6.59286 140.299 6.07254 141.106 6.07254C141.914 6.07254 142.481 6.59286 142.481 7.37333C142.481 8.18849 141.914 8.69146 141.106 8.69146ZM139.989 19.0284V9.90553H142.224V19.0284H139.989ZM144.939 19.0284V9.90553H147.07V11.0155H147.19C147.551 10.3391 148.445 9.68006 149.734 9.68006C151.762 9.68006 153 11.1196 153 13.0621V19.0284H150.765V13.6518C150.765 12.5418 150.061 11.796 149.029 11.796C147.946 11.796 147.173 12.6632 147.173 13.8079V19.0284H144.939Z" fill="white"/>
</svg>
