<svg viewBox="0 0 89 54" fill="none" xmlns="http://www.w3.org/2000/svg">
<path d="M39.252 38.9379C39.5588 39.0795 39.7947 39.1739 40.0307 39.2918C41.4228 40.0233 42.1779 41.1795 42.1779 42.7368C42.2015 46.3942 40.7385 49.2257 37.3643 50.901C36.3497 51.3965 35.2407 51.6325 34.1081 51.7033C33.9193 51.7033 33.7306 51.6797 33.5654 51.5853C31.017 50.1931 28.4687 48.801 25.8967 47.4088C25.6608 47.2908 25.6372 47.1729 25.708 46.9369C27.808 40.4008 29.8844 33.8884 31.9845 27.3523C32.0553 27.14 32.126 27.0456 32.3856 27.0456C34.934 27.0692 37.4587 26.9984 40.0071 27.0928C40.7385 27.1164 41.47 27.2815 42.1779 27.5411C44.2779 28.3197 45.3397 30.0423 45.151 32.4018C44.8678 35.8468 43.0273 37.9469 39.4408 38.8907C39.37 38.8907 39.3464 38.9143 39.252 38.9379ZM32.0553 47.9751C32.5036 47.9515 32.9519 47.9751 33.4238 47.9515C34.4384 47.9043 35.2879 47.5504 35.925 46.7245C36.6565 45.7335 37.1756 44.6245 37.3879 43.3975C37.6239 42.0997 37.0576 41.2267 35.7598 40.92C34.7924 40.684 33.825 40.7548 32.8575 40.7312C32.6923 40.7312 32.6688 40.8256 32.6216 40.9436C31.8901 43.1852 31.1586 45.4504 30.4271 47.7156C30.3564 47.9043 30.4035 47.9987 30.6159 47.9751C31.0878 47.9751 31.5833 47.9751 32.0553 47.9751ZM35.2407 37.1918C35.4531 37.1918 35.6418 37.1918 35.8542 37.1918C38.6385 37.0974 40.2902 35.4693 40.243 32.7794C40.2194 31.7883 39.7711 31.222 38.8273 30.9861C37.8834 30.7501 36.9396 30.8209 35.9958 30.8209C35.8306 30.8209 35.807 30.9389 35.7598 31.0569C35.1227 33.0389 34.4856 34.9974 33.8485 36.9558C33.7778 37.1918 33.8485 37.1918 34.0373 37.1918C34.4384 37.1918 34.8396 37.1918 35.2407 37.1918Z" fill="white"/>
<path d="M26.0885 13.5725C26.5132 13.7141 26.8908 13.8085 27.2447 13.95C28.6369 14.4927 29.274 15.413 29.2504 16.9231C29.2268 18.2917 28.802 19.5658 28.4009 20.8636C27.9526 22.303 27.4807 23.7187 27.5043 25.2289C27.5043 25.394 27.4335 25.4176 27.2919 25.4176C25.6402 25.4176 23.9885 25.4176 22.3368 25.4176C22.0536 25.4176 22.1008 25.2761 22.1244 25.1109C22.2424 23.6007 22.6671 22.1614 23.0918 20.7456C23.3986 19.6838 23.7525 18.6456 23.9177 17.5602C24.1536 16.0973 23.7289 15.5545 22.266 15.413C21.5345 15.3422 20.7794 15.3894 20.048 15.413C19.8356 15.413 19.7412 15.5074 19.694 15.7197C19.4345 16.5692 19.1513 17.395 18.9154 18.2209C18.8446 18.4568 18.7502 18.5512 18.4906 18.4804C17.0985 18.1029 15.7063 17.7254 14.3142 17.3478C14.0546 17.277 14.031 17.1827 14.1018 16.9467C15.7535 11.6376 17.4288 6.35215 19.0805 1.04308C19.1513 0.807117 19.2693 0.736328 19.5053 0.736328C21.6525 0.736328 23.7997 0.736328 25.9469 0.759924C27.2683 0.78352 28.5425 0.995883 29.7459 1.56218C31.5156 2.38804 32.4122 3.7802 32.5066 5.71506C32.5774 7.01283 32.4122 8.28701 31.8931 9.514C30.7605 11.968 28.802 13.2422 26.0885 13.5725ZM20.9682 11.5432C21.8648 11.5432 22.7379 11.5196 23.5873 11.5432C24.4604 11.5668 25.1683 11.2365 25.7582 10.623C26.7964 9.514 27.2919 8.16903 27.4099 6.68249C27.4807 5.54989 26.938 4.9128 25.829 4.70044C24.9795 4.55886 24.13 4.65325 23.2806 4.62965C23.0446 4.62965 23.0682 4.79482 23.021 4.9128C22.7143 5.88023 22.4311 6.82407 22.148 7.7679C21.7469 9.01849 21.3693 10.2691 20.9682 11.5432Z" fill="white"/>
<path d="M39.1111 16.2869C40.7628 16.2869 42.3201 16.2869 43.8775 16.2869C44.1842 16.2869 44.1606 16.1217 44.1606 15.9093C44.1606 14.7295 44.1842 13.5498 44.255 12.37C44.3494 10.3407 44.5382 8.33506 44.7505 6.32941C44.7741 6.11705 44.8213 6.06985 45.0337 6.14064C46.3786 6.54177 47.7 6.9665 49.045 7.34403C49.2573 7.41482 49.2809 7.5328 49.2809 7.72157C49.2573 9.01934 49.2337 10.3407 49.1865 11.6385C49.0686 16.1453 48.9742 20.6521 48.8798 25.1589C48.8798 25.4657 48.7618 25.4893 48.5259 25.4893C47.0157 25.4893 45.5056 25.4893 43.9954 25.4893C43.7123 25.4893 43.6415 25.4185 43.6415 25.1353C43.7123 23.6252 43.7595 22.1151 43.8303 20.6049C43.8539 20.2982 43.7831 20.1802 43.4527 20.2038C41.4707 20.2274 39.4886 20.2274 37.5066 20.2038C37.247 20.2038 37.129 20.2746 37.0111 20.5105C36.1852 22.0679 35.3594 23.6488 34.5335 25.2061C34.4391 25.3713 34.3683 25.4893 34.156 25.4893C32.4571 25.4893 30.7582 25.4893 29.0357 25.4893C28.9413 25.3477 29.0828 25.2533 29.13 25.1589C32.9054 18.4813 36.6571 11.7801 40.4089 5.10242C40.5505 4.86646 40.6448 4.79568 40.9044 4.89006C41.8954 5.19681 42.8629 5.50355 43.8539 5.7867C44.137 5.85749 44.1606 5.95188 44.0426 6.23503C42.5797 9.49126 40.9988 12.6767 39.3235 15.8386C39.2763 15.9565 39.2055 16.0981 39.1111 16.2869Z" fill="white"/>
<path d="M46.215 40.9451C46.2386 40.9451 46.1679 40.9451 46.0971 40.9451C45.8375 40.9923 45.7903 40.9215 45.8847 40.6619C46.3566 39.2934 46.7813 37.9012 47.2297 36.5091C50.2027 27.6606 52.7983 18.7177 55.4646 9.7749C55.5826 9.42096 55.677 9.37377 56.0309 9.46816C57.4939 9.94008 58.9804 10.3648 60.4434 10.7895C60.7737 10.8839 60.6557 11.0491 60.6085 11.2379C58.5793 17.6087 56.5736 23.9796 54.5444 30.3741C53.5062 33.6304 52.4679 36.8866 51.4533 40.1428C51.3825 40.4024 51.2646 40.5439 50.9578 40.5675C49.4005 40.7091 47.8432 40.8271 46.215 40.9451Z" fill="white"/>
<path d="M6.2191 4.89002C4.21345 4.89002 2.2314 4.89002 0.202148 4.89002C0.36732 4.34732 0.532492 3.82821 0.697664 3.3091C0.910027 2.60122 1.16958 1.86975 1.35835 1.13828C1.42914 0.855127 1.57071 0.78434 1.85386 0.78434C4.77975 0.78434 7.70564 0.78434 10.6315 0.78434C12.9439 0.78434 15.2563 0.784338 17.5687 0.760742C17.8755 0.760742 17.9699 0.78434 17.8755 1.13828C17.4979 2.27088 17.144 3.40348 16.8137 4.53608C16.7429 4.79564 16.6249 4.86643 16.3653 4.86643C14.8552 4.84283 13.3687 4.86643 11.8585 4.86643C11.5754 4.86643 11.4338 4.93722 11.363 5.22037C10.3248 8.57098 9.28657 11.9216 8.24835 15.2722C8.17756 15.5554 8.08318 15.6733 7.75283 15.579C6.38427 15.2014 5.03931 14.8239 3.64715 14.47C3.31681 14.3756 3.29321 14.2812 3.364 13.9744C4.30783 11.0721 5.20448 8.14626 6.12472 5.22037C6.14831 5.14958 6.17191 5.0316 6.2191 4.89002Z" fill="white"/>
<path d="M76.773 40.2601C77.2449 40.2129 77.6933 40.1658 78.1416 40.1422C79.6281 40.0478 81.0911 39.977 82.5776 39.859C82.8608 39.8354 83.0495 39.9298 83.2619 40.1422C84.6776 41.5579 85.0788 43.2804 84.7012 45.1681C84.3473 46.985 83.5686 48.6131 82.4832 50.076C81.445 51.4682 79.9821 52.2704 78.2596 52.5772C76.1831 52.9547 74.1067 53.0255 72.0538 52.4592C70.2841 51.9873 68.9864 50.9963 68.538 49.1322C68.3021 48.1412 68.3965 47.1265 68.6324 46.1591C68.7504 45.6636 68.9392 45.1917 69.0808 44.6962C69.1279 44.531 69.2223 44.4366 69.4111 44.4366C71.11 44.4366 72.7853 44.4366 74.5314 44.4366C74.319 44.9321 74.1067 45.3804 74.0123 45.8524C73.8943 46.3715 73.7999 46.867 73.8707 47.3861C74.0359 48.4715 74.8382 49.1086 75.9472 48.967C77.8348 48.7547 79.6753 46.8198 79.7225 44.9557C79.7461 43.8231 79.2978 42.8085 78.5899 41.9355C78.1416 41.3927 77.6225 40.9208 77.0562 40.5197C76.9618 40.4725 76.8202 40.4253 76.773 40.2601Z" fill="white"/>
<path d="M74.6711 27.1183C74.4588 27.7554 74.27 28.4161 74.0576 29.0532C73.8689 29.6667 73.6565 30.2566 73.4913 30.8701C73.4205 31.1532 73.279 31.2004 73.0194 31.2004C71.5093 31.2004 70.0227 31.2004 68.5126 31.1768C68.2058 31.1768 68.0879 31.2712 67.9935 31.5543C67.1676 34.1971 66.3182 36.8398 65.5159 39.4826C65.4215 39.8129 65.28 39.9309 64.926 39.9545C63.4395 40.0253 61.9529 40.1433 60.49 40.2612C60.1361 40.2848 60.1125 40.1904 60.2068 39.8837C61.0799 37.1466 61.9057 34.3859 62.7788 31.6487C62.8968 31.3184 62.8732 31.1768 62.4484 31.2004C60.7259 31.224 58.9799 31.2004 57.2574 31.224C56.9034 31.224 56.8798 31.1532 56.9742 30.8229C57.3517 29.6903 57.7057 28.5577 58.0596 27.4251C58.1068 27.2363 58.2012 27.1419 58.4135 27.1419C63.7698 27.1419 69.1025 27.1419 74.4588 27.1419C74.5531 27.0711 74.5767 27.0947 74.6711 27.1183Z" fill="white"/>
<path d="M82.1056 38.6567C80.9966 38.7275 79.982 38.7983 78.9674 38.8691C77.9292 38.9399 76.9145 38.9871 75.8763 39.0814C75.6404 39.105 75.4516 39.0578 75.2628 38.9163C74.2482 38.2084 73.6111 37.1938 73.5639 35.9904C73.446 33.5836 74.0594 31.3656 75.6876 29.5015C76.8202 28.1801 78.2831 27.4015 79.982 27.0475C81.9641 26.6464 83.9461 26.7172 85.8574 27.4015C87.3675 27.9442 88.4765 28.888 88.8777 30.5161C89.0192 31.1296 89.0428 31.7667 88.9249 32.4038C88.7833 33.1353 88.5709 33.8667 88.3114 34.5746C88.2406 34.7634 88.1462 34.8342 87.9338 34.8342C86.4473 34.8342 84.9607 34.8342 83.4742 34.8342C83.1911 34.8342 83.1911 34.7634 83.2618 34.5274C83.427 34.0319 83.6394 33.5364 83.7574 32.9937C83.8281 32.6162 83.8517 32.215 83.8045 31.8375C83.7102 31.2948 83.427 30.9173 82.8843 30.7285C81.6337 30.3274 80.4539 30.7049 79.7696 31.8375C78.9438 33.2297 78.755 34.6454 79.8404 36.0612C80.4775 37.005 81.209 37.8309 82.1056 38.6567Z" fill="white"/>
<path d="M65.3267 25.4658C63.3919 25.4658 61.4806 25.4658 59.5457 25.4658C59.1918 25.4658 59.1918 25.3714 59.2626 25.0882C60.6311 20.7702 61.9997 16.4285 63.3683 12.1105C63.4626 11.8273 63.557 11.7566 63.8402 11.8509C65.2087 12.2993 66.5773 12.7004 67.9695 13.1015C68.2762 13.1959 68.347 13.2903 68.2526 13.597C67.4504 16.0746 66.6717 18.5522 65.8694 21.0533C65.7514 21.4073 65.8222 21.4781 66.1998 21.4545C68.2526 21.4309 70.3055 21.4545 72.3583 21.4309C72.7358 21.4309 72.783 21.5253 72.665 21.8792C72.2875 22.9646 71.9336 24.0736 71.5796 25.159C71.5088 25.395 71.3909 25.4658 71.1549 25.4658C69.22 25.4658 67.2852 25.4658 65.3267 25.4658Z" fill="white"/>
<path d="M64.5257 41.227C64.9504 41.1327 65.0212 41.2506 64.9268 41.5574C64.2661 43.6574 63.6054 45.7574 62.9447 47.8811C62.8976 48.0698 62.7796 48.1406 62.6144 48.2114C60.9155 48.7069 59.193 49.226 57.4941 49.7216C57.3761 49.7452 57.2817 49.8395 57.1873 49.7451C57.0694 49.6508 57.1873 49.5328 57.2109 49.4384C58.0132 46.9136 58.8155 44.3889 59.5941 41.8641C59.6413 41.6754 59.7121 41.5338 59.9717 41.5102C61.529 41.4394 63.0863 41.3214 64.5257 41.227Z" fill="white"/>
<path d="M70.8241 5.59718C70.6825 6.0219 70.5646 6.44663 70.4466 6.84776C69.9511 8.45228 69.432 10.0568 68.96 11.6849C68.8893 11.9209 68.7949 12.0153 68.5353 11.9209C67.1196 11.4726 65.7038 11.0478 64.2881 10.6231C64.0521 10.5523 64.0049 10.4579 64.0993 10.222C64.7364 8.21632 65.3499 6.21067 65.9634 4.20502C66.1049 3.7567 66.2465 3.30837 66.3645 2.86005C66.4117 2.64769 66.5061 2.6005 66.6948 2.71848C68.0162 3.59152 69.3376 4.44098 70.6589 5.31403C70.7297 5.40841 70.8477 5.4556 70.8241 5.59718Z" fill="white"/>
<path d="M13.9359 25.6796C13.1809 25.6796 12.4258 25.6796 11.6707 25.6796C11.364 25.6796 11.2932 25.6088 11.3876 25.3021C12.119 23.1076 12.8269 20.9368 13.5348 18.7424C13.6056 18.53 13.7 18.5064 13.8887 18.5536C15.3281 18.9312 16.7438 19.3323 18.1832 19.7098C18.3955 19.757 18.3955 19.8514 18.3484 20.0166C17.7821 21.8099 17.1922 23.6267 16.6494 25.42C16.5787 25.656 16.4607 25.6796 16.2719 25.6796C15.4697 25.7032 14.7146 25.7032 13.9359 25.6796C13.9359 25.7032 13.9359 25.7032 13.9359 25.6796Z" fill="white"/>
<path d="M49.5402 2.01167C49.5402 4.34766 49.4694 5.78701 49.4694 5.78701C49.4694 6.11735 49.375 6.14095 49.0919 6.07016C46.5435 5.29149 43.9716 4.51283 41.4232 3.75776C41.0929 3.66338 41.0457 3.5454 41.2344 3.26225C41.4232 2.9791 41.5648 2.67235 41.7299 2.3656C41.9659 1.91728 42.2491 1.70492 42.7446 1.61054C44.9154 1.20941 47.0626 0.761084 49.2334 0.312762C49.5402 0.26557 49.5874 0.289165 49.5874 0.595912C49.5874 1.02064 49.5874 1.8229 49.5874 1.8229C49.5402 1.56334 49.5402 1.94088 49.5402 2.01167Z" fill="white"/>
<path d="M5.41787 24.2853C4.33246 23.1527 3.34143 22.0201 2.23243 20.9819C1.59534 20.3684 1.52455 19.8493 1.8077 19.0706C2.20883 18.056 2.46838 16.9942 2.77513 15.9324C2.82232 15.7436 2.91671 15.6964 3.12907 15.7436C4.56842 16.1447 5.98417 16.5223 7.42352 16.8998C7.61229 16.947 7.73027 16.9706 7.63588 17.2065C6.90441 19.5189 6.19654 21.8077 5.48866 24.1201C5.48866 24.1673 5.46506 24.2145 5.41787 24.2853Z" fill="white"/>
<path d="M20.8236 34.8812C20.5169 34.8576 20.2101 34.834 19.927 34.7868C18.7472 34.5508 18.2517 33.8665 18.5348 32.7103C18.8652 31.3654 19.2427 29.9968 19.8562 28.7462C20.5641 27.2361 22.6169 26.6934 24.0563 27.5664C24.6226 27.9204 24.8585 28.4395 24.7406 29.0766C24.4574 30.6103 23.9619 32.0968 23.3248 33.5362C22.9001 34.5036 22.145 34.8812 20.8236 34.8812ZM20.7764 33.725C21.3899 33.7014 21.7203 33.4418 21.909 32.9935C22.4046 31.7429 22.8057 30.4687 23.136 29.171C23.254 28.6754 22.9237 28.3215 22.4046 28.3215C21.8619 28.3215 21.5079 28.6282 21.2956 29.1238C20.8472 30.2564 20.4697 31.4126 20.1394 32.5924C20.1158 32.7103 20.0922 32.8283 20.0922 32.9699C20.1158 33.4654 20.3989 33.725 20.7764 33.725Z" fill="white"/>
<path d="M32.2451 52.3879C30.6405 52.6239 29.0832 52.8598 27.5259 53.0722C26.2753 53.261 25.0247 53.4026 23.7741 53.6149C23.3966 53.6621 23.4438 53.5677 23.5382 53.3082C24.0573 51.798 24.5528 50.2643 25.0483 48.7306C25.1191 48.5418 25.1663 48.4238 25.4023 48.5654C27.6439 49.816 29.9091 51.043 32.1507 52.2935C32.1979 52.2935 32.1979 52.3407 32.2451 52.3879Z" fill="white"/>
<path d="M23.9639 34.7636C24.4358 33.2062 24.9077 31.6961 25.3796 30.186C25.6628 29.3129 25.9223 28.4399 26.1819 27.5432C26.2527 27.3309 26.3235 27.2129 26.583 27.2129C27.6684 27.2365 28.7538 27.2365 29.8392 27.2129C30.0988 27.2129 30.1696 27.2365 30.0752 27.5196C29.7921 28.4399 29.7921 28.4399 28.801 28.4399C28.4471 28.4399 28.1167 28.4399 27.7628 28.4399C27.5976 28.4399 27.4797 28.4635 27.4325 28.6522C27.3145 29.077 27.1729 29.4781 27.0313 29.9028C27.0077 29.9972 26.9841 30.1152 26.937 30.2568C27.574 30.2568 28.1639 30.2568 28.7538 30.2568C29.0134 30.2568 29.0606 30.3275 28.9898 30.5635C28.7302 31.5073 28.7302 31.5073 27.7628 31.5073C27.3617 31.5073 26.8662 31.3422 26.6066 31.5781C26.3707 31.7905 26.3471 32.286 26.2291 32.6399C26.0403 33.2534 25.8515 33.8433 25.6628 34.4568C25.592 34.6692 25.5212 34.7636 25.2852 34.7636C24.8841 34.7636 24.4358 34.7636 23.9639 34.7636Z" fill="white"/>
</svg>
